<svg width="16" height="9" viewBox="0 0 16 9" fill="none" xmlns="http://www.w3.org/2000/svg">
<g id="fa:battery" clip-path="url(#clip0_1_16)">
<path id="Vector" d="M13.3333 1.8V7.2H1.77778V1.8H13.3333ZM14.2222 5.85H15.1111V3.15H14.2222V1.125C14.2222 1.05937 14.2014 1.00547 14.1597 0.963281C14.1181 0.921094 14.0648 0.9 14 0.9H1.11111C1.0463 0.9 0.993056 0.921094 0.951389 0.963281C0.909722 1.00547 0.888889 1.05937 0.888889 1.125V7.875C0.888889 7.94062 0.909722 7.99453 0.951389 8.03672C0.993056 8.07891 1.0463 8.1 1.11111 8.1H14C14.0648 8.1 14.1181 8.07891 14.1597 8.03672C14.2014 7.99453 14.2222 7.94062 14.2222 7.875V5.85ZM16 3.15V5.85C16 6.09844 15.9132 6.31055 15.7396 6.48633C15.566 6.66211 15.3565 6.75 15.1111 6.75V7.875C15.1111 8.18437 15.0023 8.44922 14.7847 8.66953C14.5671 8.88984 14.3056 9 14 9H1.11111C0.805556 9 0.543981 8.88984 0.326389 8.66953C0.108796 8.44922 0 8.18437 0 7.875V1.125C0 0.815625 0.108796 0.550781 0.326389 0.330469C0.543981 0.110156 0.805556 0 1.11111 0H14C14.3056 0 14.5671 0.110156 14.7847 0.330469C15.0023 0.550781 15.1111 0.815625 15.1111 1.125V2.25C15.3565 2.25 15.566 2.33789 15.7396 2.51367C15.9132 2.68945 16 2.90156 16 3.15Z" fill="white"/>
</g>
<defs>
<clipPath id="clip0_1_16">
<rect width="16" height="9" fill="white"/>
</clipPath>
</defs>
</svg>
