<svg width="49" height="45" viewBox="0 0 49 45" fill="none" xmlns="http://www.w3.org/2000/svg">
<g id="Group 9">
<g id="Group 6">
<rect id="Rectangle 16" x="1.77707" y="1" width="46.2229" height="43" rx="7" stroke="#C5C5C5" stroke-width="2"/>
</g>
<path id="Vector" d="M21.5564 9.864C21.0412 8.96012 19.8602 8.70623 19.0942 9.38667C16.5635 11.6362 14.9539 14.9928 14.9539 18.7505H26.6269L21.5564 9.864ZM37.5702 13.8756H35.3816C33.772 13.8756 32.4633 15.333 32.4633 17.1255V20.3754H14.9539C14.9539 22.9449 16.0027 25.2706 17.7035 27.0123C16.1258 27.4643 14.9539 29.0435 14.9539 30.9376C14.9539 33.1821 16.5863 35 18.6017 35C20.6171 35 22.2495 33.1821 22.2495 30.9376C22.2495 30.4857 22.1675 30.0642 22.0489 29.658C23.0338 29.9576 24.0825 30.1251 25.1678 30.1251C26.253 30.1251 27.3063 29.9576 28.2866 29.658C28.1635 30.0642 28.086 30.4857 28.086 30.9376C28.086 33.1821 29.7184 35 31.7338 35C33.7492 35 35.3816 33.1821 35.3816 30.9376C35.3816 29.0435 34.2097 27.4643 32.632 27.0123C34.3328 25.2706 35.3816 22.9449 35.3816 20.3754V17.1255H37.5702C37.9715 17.1255 38.2998 16.7599 38.2998 16.313V14.6881C38.2998 14.2412 37.9715 13.8756 37.5702 13.8756ZM18.6017 32.5626C17.7992 32.5626 17.1426 31.8313 17.1426 30.9376C17.1426 30.0439 17.7992 29.3127 18.6017 29.3127C19.4043 29.3127 20.0609 30.0439 20.0609 30.9376C20.0609 31.8313 19.4043 32.5626 18.6017 32.5626ZM33.1929 30.9376C33.1929 31.8313 32.5363 32.5626 31.7338 32.5626C30.9313 32.5626 30.2747 31.8313 30.2747 30.9376C30.2747 30.0439 30.9313 29.3127 31.7338 29.3127C32.5363 29.3127 33.1929 30.0439 33.1929 30.9376Z" fill="#C5C5C5"/>
</g>
</svg>
