<svg width="46" height="45" viewBox="0 0 46 45" fill="none" xmlns="http://www.w3.org/2000/svg">
<g id="Group 3">
<rect id="Rectangle 16" x="1" y="1" width="43.4933" height="43" rx="7" stroke="#FF912C" stroke-width="2"/>
<path id="Vector" d="M21.6046 17.0438L14.7358 23.6345V30.7478C14.7358 30.932 14.7986 31.1086 14.9104 31.2389C15.0222 31.3691 15.1738 31.4423 15.3319 31.4423L19.5068 31.4297C19.6643 31.4288 19.8152 31.3552 19.9263 31.2251C20.0375 31.0949 20.0999 30.9188 20.0999 30.7352V26.5812C20.0999 26.397 20.1627 26.2204 20.2744 26.0901C20.3862 25.9599 20.5379 25.8867 20.6959 25.8867H23.0803C23.2384 25.8867 23.39 25.9599 23.5018 26.0901C23.6136 26.2204 23.6764 26.397 23.6764 26.5812V30.7322C23.6761 30.8236 23.6914 30.9141 23.7212 30.9986C23.7511 31.0831 23.7949 31.1599 23.8503 31.2247C23.9057 31.2894 23.9715 31.3407 24.0439 31.3758C24.1164 31.4108 24.194 31.4288 24.2725 31.4288L28.4458 31.4423C28.6039 31.4423 28.7555 31.3691 28.8673 31.2389C28.9791 31.1086 29.0419 30.932 29.0419 30.7478V23.6298L22.1746 17.0438C22.0939 16.968 21.9933 16.9267 21.8896 16.9267C21.7859 16.9267 21.6853 16.968 21.6046 17.0438ZM32.4545 21.5234L29.3399 18.5326V12.5208C29.3399 12.3827 29.2928 12.2502 29.209 12.1525C29.1252 12.0549 29.0114 12 28.8929 12H26.8066C26.688 12 26.5743 12.0549 26.4905 12.1525C26.4066 12.2502 26.3595 12.3827 26.3595 12.5208V15.6723L23.024 12.4753C22.7039 12.1684 22.3023 12.0006 21.8877 12.0006C21.4732 12.0006 21.0715 12.1684 20.7515 12.4753L11.321 21.5234C11.2757 21.567 11.2383 21.6206 11.2108 21.681C11.1833 21.7415 11.1663 21.8077 11.1607 21.8758C11.1552 21.9439 11.1612 22.0126 11.1785 22.078C11.1958 22.1434 11.2239 22.2042 11.2614 22.2569L12.2114 23.6024C12.2487 23.6553 12.2947 23.6991 12.3466 23.7313C12.3984 23.7635 12.4553 23.7835 12.5138 23.79C12.5723 23.7966 12.6314 23.7897 12.6876 23.7696C12.7438 23.7496 12.7961 23.7168 12.8414 23.6732L21.6046 15.2643C21.6853 15.1885 21.7859 15.1472 21.8896 15.1472C21.9933 15.1472 22.0939 15.1885 22.1746 15.2643L30.9382 23.6732C30.9835 23.7168 31.0356 23.7496 31.0918 23.7697C31.1479 23.7898 31.2069 23.7969 31.2654 23.7904C31.3238 23.784 31.3806 23.7642 31.4325 23.7321C31.4844 23.7001 31.5304 23.6565 31.5678 23.6037L32.5178 22.2582C32.5552 22.2052 32.5833 22.1441 32.6003 22.0784C32.6174 22.0128 32.6232 21.9438 32.6173 21.8755C32.6114 21.8072 32.594 21.741 32.566 21.6805C32.5381 21.6201 32.5002 21.5667 32.4545 21.5234Z" fill="#FF912C"/>
</g>
</svg>
