<svg width="17" height="16" viewBox="0 0 17 16" fill="none" xmlns="http://www.w3.org/2000/svg">
<g id="mingcute:wifi-fill" clip-path="url(#clip0_1_33)">
<g id="Group">
<path id="Vector" d="M8.49999 11C8.78178 11 9.05203 11.1054 9.25129 11.2929C9.45054 11.4804 9.56249 11.7348 9.56249 12C9.56249 12.2652 9.45054 12.5196 9.25129 12.7071C9.05203 12.8946 8.78178 13 8.49999 13C8.21819 13 7.94794 12.8946 7.74868 12.7071C7.54943 12.5196 7.43749 12.2652 7.43749 12C7.43749 11.7348 7.54943 11.4804 7.74868 11.2929C7.94794 11.1054 8.21819 11 8.49999 11ZM8.49999 8.33334C9.0116 8.3329 9.51827 8.42749 9.99097 8.61167C10.4637 8.79585 10.8931 9.06601 11.2547 9.40667C11.4482 9.58775 11.5602 9.83193 11.5676 10.0886C11.575 10.3453 11.4772 10.5949 11.2944 10.7855C11.1117 10.9762 10.858 11.0934 10.586 11.1129C10.3139 11.1323 10.0443 11.0525 9.83307 10.89L9.75232 10.8213C9.58813 10.6662 9.39293 10.5432 9.17799 10.4595C8.96305 10.3757 8.73262 10.3329 8.49999 10.3333C8.0594 10.3333 7.65778 10.4833 7.34753 10.734L7.24836 10.8213C7.04913 11.0089 6.77889 11.1144 6.49707 11.1144C6.21525 11.1145 5.94495 11.0092 5.74563 10.8217C5.54631 10.6342 5.4343 10.3798 5.43423 10.1146C5.43416 9.84934 5.54605 9.59494 5.74528 9.40734C6.10675 9.0665 6.53615 8.79618 7.00887 8.61188C7.48159 8.42757 7.98832 8.33292 8.49999 8.33334ZM8.49999 5.66667C10.3579 5.66667 12.0417 6.37667 13.2579 7.52201C13.3622 7.61355 13.446 7.72396 13.5041 7.84662C13.5621 7.96929 13.5933 8.10171 13.5959 8.23598C13.5984 8.37025 13.5721 8.50362 13.5187 8.62814C13.4653 8.75265 13.3857 8.86577 13.2848 8.96072C13.1839 9.05568 13.0638 9.13054 12.9315 9.18084C12.7992 9.23113 12.6575 9.25583 12.5148 9.25346C12.3721 9.25109 12.2314 9.2217 12.1011 9.16705C11.9708 9.11239 11.8535 9.03359 11.7562 8.93534C11.3291 8.53225 10.8216 8.21263 10.2627 7.9949C9.70389 7.77717 9.10481 7.66562 8.49999 7.66667C7.89523 7.6658 7.29626 7.77749 6.73755 7.99534C6.17883 8.21318 5.67141 8.53287 5.24449 8.93601C5.04526 9.1236 4.77501 9.22903 4.49319 9.22909C4.21138 9.22915 3.94108 9.12385 3.74176 8.93634C3.54243 8.74883 3.43042 8.49448 3.43035 8.22924C3.43029 7.964 3.54217 7.7096 3.7414 7.52201C4.36569 6.93306 5.10744 6.46598 5.92406 6.14759C6.74067 5.8292 7.61607 5.66577 8.49999 5.66667ZM8.49999 3.00001C11.1399 3.00001 13.5327 4.00867 15.2617 5.63601C15.3604 5.72889 15.4386 5.83916 15.492 5.96051C15.5454 6.08186 15.5728 6.21191 15.5728 6.34324C15.5728 6.47457 15.5452 6.60462 15.4918 6.72594C15.4384 6.84726 15.3601 6.95749 15.2614 7.05034C15.1627 7.14318 15.0455 7.21682 14.9166 7.26705C14.7877 7.31728 14.6495 7.34312 14.5099 7.34309C14.3704 7.34306 14.2322 7.31716 14.1033 7.26687C13.9744 7.21659 13.8573 7.14289 13.7587 7.05001C13.0689 6.39897 12.2493 5.88269 11.3468 5.53088C10.4443 5.17906 9.47682 4.99864 8.49999 5.00001C6.44582 5.00001 4.58786 5.78267 3.24061 7.05001C3.14305 7.14713 3.02578 7.22486 2.89575 7.27861C2.76572 7.33235 2.62556 7.36102 2.48356 7.36291C2.34156 7.3648 2.2006 7.33987 2.069 7.28961C1.93741 7.23935 1.81786 7.16477 1.71741 7.07028C1.61697 6.97579 1.53767 6.8633 1.48421 6.73948C1.43074 6.61565 1.40419 6.48299 1.40614 6.34934C1.40808 6.21569 1.43847 6.08376 1.49551 5.96135C1.55255 5.83895 1.63508 5.72854 1.73824 5.63667C2.62526 4.7997 3.67924 4.13592 4.83962 3.68344C6.00001 3.23096 7.24395 2.9987 8.49999 3.00001Z" fill="black" fill-opacity="0.7"/>
</g>
</g>
<defs>
<clipPath id="clip0_1_33">
<rect width="17" height="16" fill="white"/>
</clipPath>
</defs>
</svg>
