<svg width="17" height="16" viewBox="0 0 17 16" fill="none" xmlns="http://www.w3.org/2000/svg">
<g id="mingcute:wifi-fill" clip-path="url(#clip0_1_12)">
<g id="Group">
<path id="Vector" d="M8.5 11C8.78179 11 9.05204 11.1054 9.2513 11.2929C9.45056 11.4804 9.5625 11.7348 9.5625 12C9.5625 12.2652 9.45056 12.5196 9.2513 12.7071C9.05204 12.8946 8.78179 13 8.5 13C8.21821 13 7.94796 12.8946 7.7487 12.7071C7.54944 12.5196 7.4375 12.2652 7.4375 12C7.4375 11.7348 7.54944 11.4804 7.7487 11.2929C7.94796 11.1054 8.21821 11 8.5 11ZM8.5 8.33334C9.01161 8.3329 9.51828 8.42749 9.99099 8.61167C10.4637 8.79585 10.8931 9.06601 11.2547 9.40667C11.4482 9.58775 11.5602 9.83193 11.5676 10.0886C11.575 10.3453 11.4772 10.5949 11.2944 10.7855C11.1117 10.9762 10.858 11.0934 10.586 11.1129C10.3139 11.1323 10.0443 11.0525 9.83308 10.89L9.75233 10.8213C9.58814 10.6662 9.39295 10.5432 9.17801 10.4595C8.96307 10.3757 8.73264 10.3329 8.5 10.3333C8.05942 10.3333 7.65779 10.4833 7.34754 10.734L7.24838 10.8213C7.04915 11.0089 6.7789 11.1144 6.49708 11.1144C6.21527 11.1145 5.94497 11.0092 5.74565 10.8217C5.54633 10.6342 5.43431 10.3798 5.43424 10.1146C5.43418 9.84934 5.54606 9.59494 5.74529 9.40734C6.10676 9.0665 6.53617 8.79618 7.00889 8.61188C7.4816 8.42757 7.98833 8.33292 8.5 8.33334ZM8.5 5.66667C10.358 5.66667 12.0417 6.37667 13.2579 7.52201C13.3623 7.61355 13.446 7.72396 13.5041 7.84662C13.5621 7.96929 13.5934 8.10171 13.5959 8.23598C13.5984 8.37025 13.5722 8.50362 13.5187 8.62814C13.4653 8.75265 13.3857 8.86577 13.2848 8.96072C13.184 9.05568 13.0638 9.13054 12.9315 9.18084C12.7992 9.23113 12.6575 9.25583 12.5148 9.25346C12.3721 9.25109 12.2314 9.2217 12.1011 9.16705C11.9708 9.11239 11.8535 9.03359 11.7562 8.93534C11.3291 8.53225 10.8216 8.21263 10.2627 7.9949C9.7039 7.77717 9.10483 7.66562 8.5 7.66667C7.89524 7.6658 7.29627 7.77749 6.73756 7.99534C6.17885 8.21318 5.67143 8.53287 5.2445 8.93601C5.04527 9.1236 4.77503 9.22903 4.49321 9.22909C4.21139 9.22915 3.94109 9.12385 3.74177 8.93634C3.54245 8.74883 3.43044 8.49448 3.43037 8.22924C3.4303 7.964 3.54219 7.7096 3.74142 7.52201C4.36571 6.93306 5.10746 6.46598 5.92407 6.14759C6.74069 5.8292 7.61609 5.66577 8.5 5.66667ZM8.5 3.00001C11.14 3.00001 13.5327 4.00867 15.2618 5.63601C15.3604 5.72889 15.4386 5.83916 15.492 5.96051C15.5454 6.08186 15.5728 6.21191 15.5728 6.34324C15.5728 6.47457 15.5452 6.60462 15.4918 6.72594C15.4384 6.84726 15.3601 6.95749 15.2614 7.05034C15.1627 7.14318 15.0455 7.21682 14.9166 7.26705C14.7877 7.31728 14.6495 7.34312 14.51 7.34309C14.3704 7.34306 14.2322 7.31716 14.1033 7.26687C13.9744 7.21659 13.8573 7.14289 13.7587 7.05001C13.0689 6.39897 12.2493 5.88269 11.3468 5.53088C10.4443 5.17906 9.47683 4.99864 8.5 5.00001C6.44583 5.00001 4.58788 5.78267 3.24063 7.05001C3.14306 7.14713 3.0258 7.22486 2.89577 7.27861C2.76574 7.33235 2.62558 7.36102 2.48358 7.36291C2.34157 7.3648 2.20061 7.33987 2.06902 7.28961C1.93742 7.23935 1.81787 7.16477 1.71743 7.07028C1.61698 6.97579 1.53769 6.8633 1.48422 6.73948C1.43076 6.61565 1.40421 6.48299 1.40615 6.34934C1.40809 6.21569 1.43848 6.08376 1.49552 5.96135C1.55256 5.83895 1.6351 5.72854 1.73825 5.63667C2.62528 4.7997 3.67925 4.13592 4.83964 3.68344C6.00003 3.23096 7.24396 2.9987 8.5 3.00001Z" fill="white"/>
</g>
</g>
<defs>
<clipPath id="clip0_1_12">
<rect width="17" height="16" fill="white"/>
</clipPath>
</defs>
</svg>
