<svg width="21" height="20" viewBox="0 0 21 20" fill="none" xmlns="http://www.w3.org/2000/svg">
<path id="Vector" d="M10.9193 0C5.39506 0 0.91925 4.33718 0.91925 9.69027C0.91925 15.0434 5.39506 19.3805 10.9193 19.3805C16.4434 19.3805 20.9193 15.0434 20.9193 9.69027C20.9193 4.33718 16.4434 0 10.9193 0ZM16.7257 10.7843C16.7257 11.0422 16.508 11.2532 16.2418 11.2532H12.5322V14.848C12.5322 15.1059 12.3144 15.3169 12.0483 15.3169H9.79022C9.52409 15.3169 9.30635 15.1059 9.30635 14.848V11.2532H5.59667C5.33054 11.2532 5.1128 11.0422 5.1128 10.7843V8.5962C5.1128 8.33832 5.33054 8.12732 5.59667 8.12732H9.30635V4.53254C9.30635 4.27466 9.52409 4.06366 9.79022 4.06366H12.0483C12.3144 4.06366 12.5322 4.27466 12.5322 4.53254V8.12732H16.2418C16.508 8.12732 16.7257 8.33832 16.7257 8.5962V10.7843Z" fill="#3BC575"/>
</svg>
